PathFileType	4	(X/Y/Z)	27_2_74_p0_0-587.trc
DataRate	CameraRate	NumFrames	NumMarkers	Units	OrigDataRate	OrigDataStartFrame	OrigNumFrames
60.0	60.0	6	27	m	60.0	441	588
Frame#	Time	RHip			RKnee			RAnkle			RBigToe			RSmallToe			RHeel			LHip			LKnee			LAnkle			LBigToe			LSmallToe			LHeel			Neck			Head			Nose			RShoulder			RElbow			RWrist			RThumb			RIndex			RPinky			LShoulder			LElbow			LWrist			LThumb			LIndex			LPinky			
		X1	Y1	Z1	X2	Y2	Z2	X3	Y3	Z3	X4	Y4	Z4	X5	Y5	Z5	X6	Y6	Z6	X7	Y7	Z7	X8	Y8	Z8	X9	Y9	Z9	X10	Y10	Z10	X11	Y11	Z11	X12	Y12	Z12	X13	Y13	Z13	X14	Y14	Z14	X15	Y15	Z15	X16	Y16	Z16	X17	Y17	Z17	X18	Y18	Z18	X19	Y19	Z19	X20	Y20	Z20	X21	Y21	Z21	X22	Y22	Z22	X23	Y23	Z23	X24	Y24	Z24	X25	Y25	Z25	X26	Y26	Z26	X27	Y27	Z27	
441	7.35	0.14014047983840966	0.5416547850588589	0.8508245515368729	0.15792042784536822	0.7200508827397597	1.3487351083536945	0.19194832658362815	0.7947986063613169	1.8051204908665819	0.1283175838608928	0.6066705783365515	1.853170909769465	0.19037231012258377	0.6012887795618933	1.8332909514667803	0.1723064344355009	0.8894898739942287	1.8773467379116606	-0.0759463269306162	0.5852706919264802	0.8602368286607004	-0.05374235195864854	0.7420880939568878	1.3722570648344232	-0.0327174480321698	0.791023226997354	1.8230270933515857	-0.02403436373985808	0.6121607730739264	1.8505979209775072	-0.08025052475724945	0.6505000834607396	1.8488362751390357	-0.00048174402328682287	0.8699858452630611	1.8772566001576798	-0.0016255222905978215	0.5052044675192288	0.31544935107369193	0.0023995158963160154	0.47402255324525766	0.07196788085921126	-0.018622889073841575	0.3995114842795354	0.19795444025586054	0.17047445924552435	0.5119131713015046	0.40302363433022714	0.23050269495232845	0.5037778370356432	0.6938433138547871	0.2372576730162905	0.48169851187897783	0.9567918309657948	0.14291540573425304	0.48788370573110584	1.081536048582832	0.16359462244650125	0.4968705363253941	1.1190767359866187	0.20049813177801504	0.569082848642965	1.1429990747828054	-0.16030986710712686	0.5553036440648633	0.41800939129512477	-0.17352827599859216	0.5872529626836998	0.6837121411017214	-0.16489510164847623	0.5605781531860562	0.9656029501105134	-0.08937610435757734	0.5225324241560304	1.0750943816223335	-0.11593631337330254	0.5446609178174774	1.1074748664197582	-0.15234424340495004	0.5860474733822202	1.1141544755499515
442	7.366666666666666	0.1448152186200174	0.5534042156826395	0.8528525150192893	0.15801834808538284	0.7203451627854872	1.348997939206685	0.1965628529947426	0.7955139743914952	1.8052125990837309	0.12865842628599944	0.6067583156570356	1.8526024832530437	0.19064178705596413	0.601546990985352	1.832977264459702	0.17262494184324365	0.8900340111703465	1.877568967964245	-0.07591107465937588	0.5857146443158638	0.8605422269420185	-0.05372654320519725	0.742072415378003	1.3722199727318416	-0.034071145096599594	0.7889660080336564	1.8173201058317587	-0.02410380674465137	0.6123175175884835	1.8507939222582381	-0.08045816308553023	0.6511659166194714	1.8494176545996786	-0.0005445113518021426	0.8704825995880218	1.8774745706628675	-0.0016822277958274572	0.5051703756670269	0.31544197521512957	0.002202638972410117	0.4742161464986778	0.07203124793575695	-0.021396100740640935	0.4109311434401192	0.19767053126652576	0.17047699801313174	0.5118456034907028	0.40298351996882803	0.23039250784384255	0.5035205215399604	0.6936554731793019	0.23694030033688399	0.48135878840934443	0.956431431311176	0.14252457600394322	0.4861597750689457	1.0770986294436928	0.15946904609919632	0.4970563328267922	1.1146490556256383	0.19678097501656847	0.5824608140434824	1.1390720113197434	-0.16410047930121105	0.5546030392448974	0.41815764317908216	-0.1772131775512002	0.600422986870784	0.685478183287517	-0.16202337021056487	0.570872912770713	0.9641666172257739	-0.0893423941604033	0.5224022786409156	1.074841778675317	-0.11600264101741274	0.5447417651578937	1.1071963711078423	-0.14827505077190362	0.5982080919492802	1.1170590261506432
443	7.383333333333334	0.14511063589783257	0.5533426948108497	0.8489194808516121	0.16361662434034108	0.7230486755730897	1.3539733394059703	0.19586960934606573	0.7958672818452712	1.809918849208567	0.13382192756501288	0.6200323484113249	1.8597264087242633	0.18888172603076203	0.5994564406446121	1.827701824405238	0.1769730133255671	0.8905986476441462	1.8777151052212777	-0.07667475056749158	0.5842443073527473	0.856429402701228	-0.053780960251129065	0.7419117873042164	1.3720968239564186	-0.03412076047521213	0.788684985606626	1.8171948213644356	-0.024063340573099133	0.6118456860304868	1.8504227603338035	-0.08030264403766807	0.650287497257779	1.8487561471123877	-0.000701777224142247	0.8703691913947095	1.8775346987973167	-0.0017301336718339652	0.5051394888673555	0.3154605588040078	0.002144194831681961	0.4741055993029511	0.07206107966396416	-0.021405130911746572	0.41094185790109555	0.19774811973708198	0.17034473017155505	0.5122394282333779	0.4030625988124713	0.23012509907539513	0.5042480104351795	0.6899396634653475	0.23589124279468984	0.48185606160453226	0.9561681174288659	0.13862092806829016	0.4852561807388913	1.0701559827542408	0.15221467746725237	0.49973096356816255	1.1120295345629168	0.19658018512168948	0.5829004104941874	1.1390354104276412	-0.1641092324740804	0.554670917988213	0.4181691125927362	-0.17721684735766569	0.6004947497569588	0.6855139415790541	-0.1586051064288042	0.5576566864759062	0.9607245404765797	-0.08950304377642498	0.5228718652290363	1.0709912548064013	-0.11214370974897962	0.531718450438552	1.1032432577724212	-0.14826805787038938	0.5983651475947762	1.1131784225449013
444	7.4	0.14499228140074344	0.5535129867532613	0.8488958617793304	0.16647495742802199	0.7082698568662416	1.348988756695394	0.19190713690216493	0.7947871273404336	1.8052096288950887	0.1352611937260005	0.6208532078493656	1.8543452117308457	0.1894416970898725	0.6008772660744276	1.8273704669131838	0.1683259115654599	0.8889400441023976	1.877299186390234	-0.07245511501978165	0.5961828860700393	0.8550304542074757	-0.04940158520021365	0.7266026521412681	1.3630952410288286	-0.032601180933562006	0.7909332968591577	1.8229311423485226	-0.024245523713897273	0.6121003549140104	1.8508919173649867	-0.08481206072908458	0.6501818163466428	1.8488534507117538	0.0009375121029641458	0.8729567882802093	1.8833173625175779	-0.0019670081424107404	0.5048109042098693	0.3155007360382002	0.004705931930924752	0.46255195446457564	0.07287888085981802	-0.02130133264888666	0.40161714891818934	0.1982233814386135	0.16612764174954975	0.5128669690595814	0.40328459871366595	0.22522988097818575	0.4934214252051207	0.6886019292236273	0.23365611926417393	0.49417725080152175	0.9592010437294897	0.1374438739290008	0.4838431431482829	1.06923671144627	0.14733049310640445	0.49845189108820426	1.112361729206762	0.19651756040097035	0.5838541373883251	1.139056314685928	-0.16427820981073069	0.5542645467254549	0.4182083385228055	-0.17293658142968785	0.5886604786082569	0.6875353620337961	-0.15792977075242054	0.5571119070457742	0.956777111874169	-0.08939276322081614	0.5224261490537432	1.070749724477051	-0.10354414105915942	0.5201386236699629	1.1041906148716893	-0.14351896136817366	0.5993596899230094	1.113522948214396
445	7.416666666666667	0.14034468812096867	0.5417183569885073	0.8467886839282894	0.17165213382500338	0.7207348442295393	1.3529664367065877	0.1911497472496623	0.7955828540735066	1.8100402322784381	0.13521782654230943	0.620582936084531	1.8545441490623202	0.1947785262003883	0.6138278760987291	1.8340793496265202	0.16721901535040037	0.8898697645276696	1.8832423779104697	-0.07666872221741129	0.5841276795437631	0.8563320724064306	-0.0493620749811863	0.7264478104086178	1.3631102194269007	-0.032680152684932934	0.7909628289493634	1.8229713354188715	-0.03338678117116931	0.5963878401987077	1.8430493806354822	-0.08512111395969585	0.6488217238833947	1.8480511694481854	0.0006278766466133493	0.8725648720455051	1.8833773004303709	-0.0019650704945630808	0.5048494217892735	0.3154966695402603	0.002147071855256683	0.4740186035359974	0.07210137490788121	-0.021300405676668226	0.4016086890045539	0.19820255442295176	0.16615195786849632	0.5130250611774315	0.40336626769809447	0.22417507153161048	0.49167814864128084	0.6850201306597539	0.2353999265990993	0.48113468505856993	0.9558616000239551	0.13038951956290648	0.48639944424861625	1.071074162489255	0.1389305179150998	0.49549985664350066	1.1115246984566345	0.19640781989715908	0.5837577282376867	1.1391083712941292	-0.16422992839777015	0.5543793479791017	0.4182234864073534	-0.17661250085504146	0.6018112655287438	0.6895016737062319	-0.15838285177189548	0.5570314949132605	0.9605356857744725	-0.08680064893704044	0.5085477781159761	1.0629538949391244	-0.10042828560249009	0.5061376714796357	1.0956225675212108	-0.13662955372263494	0.5877262782637522	1.1137864871712344
446	7.433333333333334	0.14040315141008333	0.5418448139319776	0.8468617468472207	0.16636996724707964	0.7078366795739705	1.3486852561122347	0.1919327718337763	0.795199566750541	1.8054616766827074	0.13506358610106736	0.6208031810305152	1.8547143967826492	0.19468877940967225	0.6141437842180314	1.8341634839426246	0.1697169032527703	0.8920669114773705	1.8842967549301635	-0.07600205602934568	0.5855116281282445	0.8603498430867805	-0.049508637789051305	0.7266720333637522	1.3629589171739467	-0.03392414732344176	0.789011786373202	1.8173075900477471	-0.03333759446423583	0.5966648455626498	1.8429426644438152	-0.08511214883380906	0.6491605852030576	1.8481847407873926	0.004807374742165585	0.8847503947986142	1.8889267910261358	-0.0019203712229955284	0.5048765139074815	0.3155254861581869	-0.0018823169127062805	0.46333073118221985	0.07317711950798526	-0.025127323061593036	0.40090610997234594	0.19853136859729362	0.16390461946708537	0.525488542156321	0.40398443199873524	0.22501723592458045	0.4929686133896882	0.6885694578347105	0.23341844551596297	0.4938091255606869	0.9590520210274374	0.12747809694747048	0.49927518790986103	1.0779396646829569	0.13880971387435148	0.4959267299909	1.1111994224772193	0.19536639304636688	0.5825385263108904	1.1350987563513384	-0.1642074640310867	0.5545022931928426	0.4182260153619611	-0.17656979700321235	0.6018826050239054	0.6894995569551492	-0.1614252060567907	0.5452317810820537	0.9542353677129869	-0.08621293725668916	0.5083297541945554	1.0590361335695821	-0.10045025774479734	0.5062332456843187	1.0953740109500514	-0.13593264619603887	0.587186187765632	1.1094758947470178
